<svg width="127" height="48" viewBox="0 0 127 48" fill="none" xmlns="http://www.w3.org/2000/svg">
<g style="mix-blend-mode:luminosity" clip-path="url(#clip0_333_1359)">
<path fill-rule="evenodd" clip-rule="evenodd" d="M125.573 30.5633C120.317 38.4606 111.994 36.1691 109.494 34.3749C108.43 35.0147 106.565 36.417 104.077 36.255C98.7794 35.9104 96.8823 29.2007 96.8823 29.2007C96.9204 29.2275 95.3043 29.6949 94.4308 29.6866C94.4196 31.6542 92.5005 36.3546 87.3212 36.2945C81.5092 36.2273 80.3277 28.5531 80.3277 28.5531C80.3277 28.5531 79.7493 29.2649 77.5502 29.9739C77.6609 28.4622 77.58 36.0644 70.6141 36.1761C65.1071 36.2646 63.6206 28.4348 63.6206 28.4348C63.6206 28.4348 62.6652 29.3143 60.8138 29.6194C60.9315 28.0831 60.7402 36.2019 53.7735 36.1761C49.0654 36.1588 47.4566 31.353 47.5817 30.686C47.7414 29.8359 45.9906 36.2957 41.4174 36.195C39.5303 36.1459 38.1233 34.9349 37.2405 33.3204C36.0586 34.5189 34.3427 36.195 32.4178 36.195C28.9625 36.195 27.4392 33.6337 27.6972 26.3179C27.7192 25.4502 27.6485 25.109 26.6753 24.9792C26.0912 24.8928 25.4929 24.7292 24.86 24.643C24.6571 25.243 22.9364 35.9998 17.0195 36.204C15.0345 36.2725 13.9491 34.7485 13.0578 33.6174C11.6914 35.2194 9.88767 36.255 7.31814 36.255C2.96555 36.255 0 33.1365 0 29.2895C0 25.4425 2.96555 22.3242 7.31814 22.3242C8.08772 22.3242 8.30376 22.422 9.00682 22.6038C7.56095 10.9365 10.9755 9.11303 13.9625 9.11303C16.8302 9.11303 21.7293 15.012 14.8358 29.9751C16.3663 34.4381 19.6658 34.1857 21.2513 24.9982C21.574 23.1307 20.7111 20.6105 22.0532 20.2588C24.5065 19.616 24.7668 21.5446 25.9171 21.866C27.1334 22.2056 27.8433 22.1724 29.011 22.3885C31.0062 22.7339 31.7848 23.6838 31.5417 25.7996C31.2498 28.4767 30.7391 32.3732 32.2961 32.8481C33.419 33.1931 35.469 31.1293 35.8287 30.0001C36.1883 28.871 36.2635 28.4845 36.2954 27.6563C36.344 25.8861 36.4051 24.5886 36.7457 23.2499C36.8915 22.7319 37.0576 22.3888 37.7189 22.3654C38.263 22.3531 39.258 22.2079 39.6961 22.51C40.2799 22.8988 40.2069 23.2933 40.1399 24.3316C39.4609 39.1353 44.6869 31.7452 46.2451 25.8279C45.6902 19.1369 46.0712 9.23555 50.802 9.06949C53.2624 8.98313 54.3502 10.7301 54.4698 12.034C54.8082 15.7168 52.9126 21.8172 50.4196 25.9197C48.9948 34.2907 56.6492 35.9459 57.8733 29.2642C55.8706 28.4202 53.7063 25.0044 55.4675 23.3397C56.4558 22.4055 60.5695 23.7476 60.6369 26.6748C62.6548 26.1965 62.9242 25.1867 62.9522 25.354C62.3975 18.663 62.912 9.23564 67.6432 9.06957C70.1032 8.98321 71.1908 10.7301 71.3104 12.0341C71.6488 15.7168 69.7532 21.8173 67.2606 25.9199C65.8356 34.2907 73.4902 35.946 74.7139 29.2643C73.2312 29.0107 70.1012 25.3775 71.9072 23.3398C72.8723 22.2509 76.971 24.5154 77.4299 26.7717C79.3683 26.2855 79.6316 25.3078 79.6594 25.4724C79.1046 18.7816 79.619 9.35422 84.3502 9.18815C86.8103 9.10179 87.8979 10.8487 88.0175 12.1527C88.3559 15.8354 86.4603 21.936 83.9673 26.0385C82.5427 34.4095 90.1971 36.0644 91.4212 29.3827C89.3836 29.082 86.4878 25.2458 88.8185 23.2833C89.7496 22.4992 93.3077 24.5346 94.1406 26.8568C95.2978 26.8173 96.0182 26.4636 96.1726 26.4279C94.3251 18.573 95.7004 9.14836 100.79 9.06969C103.541 9.02721 106.23 10.3877 105.05 17.8606C103.923 24.9906 99.8726 27.9827 99.882 28.0285C100.118 28.8827 102.196 36.0312 107.43 32.2594C107.159 31.7157 106.887 31.1603 106.736 30.4874C105.868 26.5677 107.572 22.1404 112.203 21.4249C114.857 21.0149 117.356 22.1598 117.751 24.741C118.401 28.9645 114.098 32.0233 112.462 32.6868C111.729 32.3178 119.106 36.5107 123.483 28.108C123.737 27.6282 124.043 27.6689 124.44 27.9162C124.72 28.0908 126.315 29.4299 125.573 30.5633ZM10.4843 28.2517C10.2615 27.6615 9.8044 26.361 9.64276 25.7976C8.75252 25.1114 8.1171 25 6.9744 25C4.43497 25 2.9403 27.0809 2.9403 29.3247C2.9403 31.5684 4.56863 33.6496 7.10807 33.6496C9.30879 33.6496 10.9837 32.3235 11.4948 30.4462C11.1371 29.7143 10.7823 29.0417 10.4843 28.2517ZM13.9003 12.2015C12.1159 12.2015 11.5107 15.974 11.6281 19.1924C11.732 22.0378 12.6291 24.5428 13.0945 25.6653C13.2127 25.8059 13.1907 25.7144 13.2962 25.8636C16.3944 19.8472 15.1093 12.2015 13.9003 12.2015ZM51.0569 12.32C48.7507 12.0855 48.7656 20.6001 49.0519 22.51C50.2496 20.8118 52.3303 12.7772 51.0569 12.32ZM67.8975 12.32C65.5913 12.0855 65.6062 20.6001 65.8927 22.51C67.0903 20.8118 69.1711 12.7772 67.8975 12.32ZM84.6047 12.4384C82.2984 12.204 82.3133 20.7186 82.5997 22.6287C83.7973 20.9303 85.8781 12.8956 84.6047 12.4384ZM101.044 11.8215C97.4512 12.461 98.2879 23.0789 98.8337 24.9412C103.066 19.789 103.153 11.628 101.044 11.8215ZM114.511 25.0903C114.328 24.4133 113.414 24.0515 112.784 24.1407C110.98 24.359 109.23 26.3505 109.907 29.3824C110.058 30.0576 110.435 30.6792 110.429 30.6585C114.467 28.2577 114.81 26.3659 114.511 25.0903ZM38.4262 20.0218C37.9105 20.0219 37.4065 19.8864 36.9777 19.6326C36.5489 19.3787 36.2146 19.0179 36.0172 18.5957C35.8198 18.1735 35.7682 17.7089 35.8688 17.2607C35.9692 16.8124 36.2176 16.4007 36.5822 16.0775C36.9467 15.7543 37.4113 15.5342 37.917 15.4451C38.4227 15.3559 38.9469 15.4016 39.4234 15.5765C39.8998 15.7514 40.3069 16.0476 40.5933 16.4276C40.8798 16.8076 41.0327 17.2544 41.0327 17.7114C41.0327 18.0148 40.9653 18.3152 40.8343 18.5955C40.7034 18.8758 40.5114 19.1305 40.2693 19.345C40.0272 19.5596 39.7399 19.7298 39.4237 19.8459C39.1075 19.962 38.7686 20.0218 38.4262 20.0218Z" fill="#0D0C22"/>
</g>
<defs>
<clipPath id="clip0_333_1359">
<rect width="126.369" height="48" fill="white"/>
</clipPath>
</defs>
</svg>
