<svg width="126" height="48" viewBox="0 0 126 48" fill="none" xmlns="http://www.w3.org/2000/svg">
<g style="mix-blend-mode:luminosity" clip-path="url(#clip0_333_1362)">
<path d="M17.2219 38.0663C15.3378 38.3595 13.4206 38.4474 11.4373 38.6816L5.38798 22.9786V39.3555C3.50388 39.5313 1.78503 39.7656 0 40V10H5.02459L11.9 27.0217V10H17.2219V38.0663ZM27.6345 20.9863C29.6841 20.9863 32.8243 20.8984 34.7084 20.8984V25.5858C32.3614 25.5858 29.6179 25.5858 27.6345 25.6737V32.6465C30.7419 32.4708 33.8491 32.2362 36.9892 32.1483V36.6597L22.3455 37.6854V10H36.9892V14.6875H27.6345V20.9863ZM56.6573 14.6876H51.1701V36.2501C49.3851 36.2501 47.6 36.2501 45.8814 36.3085V14.6876H40.3943V10H56.6575L56.6573 14.6876ZM65.2517 20.6642H72.491V25.3516H65.2517V35.9864H60.0616V10H74.8379V14.6875H65.2517V20.6642ZM83.4323 31.8848C86.4404 31.9432 89.4814 32.1486 92.4235 32.2948V36.9238C87.6966 36.66 82.9696 36.3966 78.1435 36.3085V10H83.4323V31.8848ZM96.8859 37.2461C98.5717 37.3341 100.357 37.422 102.076 37.5975V10H96.8859V37.2461ZM125.248 10L118.537 24.2676L125.248 40C123.264 39.7656 121.281 39.4433 119.298 39.1503L115.496 30.4786L111.629 38.4474C109.712 38.1542 107.86 38.0663 105.944 37.8319L112.753 24.0917L106.604 10H112.29L115.761 17.8809L119.463 10H125.248V10Z" fill="#D81F26"/>
</g>
<defs>
<clipPath id="clip0_333_1362">
<rect width="125.241" height="48" fill="white"/>
</clipPath>
</defs>
</svg>
