<svg width="146" height="48" viewBox="0 0 146 48" fill="none" xmlns="http://www.w3.org/2000/svg">
<g style="mix-blend-mode:luminosity" clip-path="url(#clip0_333_1361)">
<path d="M50.7008 34.7749V20.2199H50.9934L62.9473 34.7749H66.7091V13.4006H62.5294V27.919H62.2368L50.2828 13.4006H46.5211V34.7749H50.7008ZM78.5376 35.1049C84.0548 35.1049 87.4404 31.9519 87.4404 26.6725C87.4404 21.4297 84.0548 18.2401 78.5376 18.2401C73.0622 18.2401 69.6348 21.4297 69.6348 26.6725C69.6766 31.9519 73.0204 35.1049 78.5376 35.1049ZM78.5376 32.0252C75.6118 32.0252 73.9399 30.0821 73.9399 26.6725C73.9399 23.2995 75.6118 21.3198 78.5376 21.3198C81.4634 21.3198 83.1353 23.2995 83.1353 26.6725C83.1353 30.0821 81.4634 32.0252 78.5376 32.0252ZM91.2439 14.6105V18.68H88.3181V21.6131H91.2439V30.4487C91.2439 33.6017 92.9158 34.8483 97.1791 34.8483C97.9732 34.8483 98.7674 34.7749 99.3943 34.6649V31.8053C98.8928 31.8419 98.5584 31.8786 97.9732 31.8786C96.2177 31.8786 95.4236 31.182 95.4236 29.5688V21.6131H99.3943V18.68H95.4236V14.6105H91.2439ZM101.902 34.7749H106.082V18.5701H101.902V34.7749ZM103.992 15.8937C105.371 15.8937 106.5 14.9038 106.5 13.6939C106.5 12.4474 105.371 11.4575 103.992 11.4575C102.613 11.4575 101.484 12.4474 101.484 13.6939C101.484 14.9038 102.613 15.8937 103.992 15.8937ZM117.534 35.1049C123.051 35.1049 126.437 31.9519 126.437 26.6725C126.437 21.4297 123.051 18.2401 117.534 18.2401C112.059 18.2401 108.631 21.4297 108.631 26.6725C108.631 31.9519 111.975 35.1049 117.534 35.1049ZM117.534 32.0252C114.608 32.0252 112.937 30.0821 112.937 26.6725C112.937 23.2995 114.608 21.3198 117.534 21.3198C120.418 21.3198 122.132 23.2995 122.132 26.6725C122.09 30.0821 120.418 32.0252 117.534 32.0252ZM128.903 34.7749H133.083V25.3526C133.083 22.9696 134.671 21.4664 137.137 21.4664C139.687 21.4664 140.857 22.7129 140.857 25.1693V34.7749H145.037V24.2894C145.037 20.4032 142.78 18.2401 138.684 18.2401C135.925 18.2401 134.086 19.34 133.208 21.1731H132.916V18.5701H128.861C128.903 18.5701 128.903 34.7749 128.903 34.7749Z" fill="black"/>
<path fill-rule="evenodd" clip-rule="evenodd" d="M6.4449 12.0326C7.66141 12.9024 8.10142 12.8337 10.3791 12.6964L31.8363 11.5519C32.3022 11.5519 31.9139 11.1399 31.7586 11.0941L28.1867 8.82806C27.5138 8.37028 26.582 7.82093 24.8478 7.95826L4.08954 9.30874C3.33893 9.37741 3.18363 9.72075 3.49422 9.97254L6.4449 12.0326ZM7.73906 16.4502V36.4098C7.73906 37.4857 8.33437 37.8748 9.70618 37.8061L33.2857 36.593C34.6575 36.5243 34.8128 35.7918 34.8128 34.922V15.0998C34.8128 14.23 34.4246 13.7493 33.5963 13.818L8.95557 15.0998C8.04966 15.1684 7.73906 15.5804 7.73906 16.4502ZM31.008 17.5261C31.1633 18.1212 31.008 18.7392 30.335 18.8079L29.1962 19.0139V33.7547C28.2126 34.2125 27.3067 34.4871 26.5302 34.4871C25.3137 34.4871 25.0031 34.1438 24.0972 33.1367L16.6687 22.8135V32.7933L19.0241 33.2511C19.0241 33.2511 19.0241 34.4642 17.1346 34.4642L11.9062 34.7389C11.7509 34.4642 11.9062 33.8005 12.4239 33.6631L13.7957 33.3198V20.1355L11.9062 19.9981C11.7509 19.403 12.1392 18.5332 13.2004 18.4645L18.817 18.1212L26.5561 28.5588V19.3343L24.589 19.1283C24.4337 18.3959 25.0549 17.8465 25.8055 17.7778L31.008 17.5261ZM2.35537 7.47759L23.9678 6.08133C26.6079 5.87532 27.3067 6.01266 28.9632 7.08847L35.8482 11.3688C36.987 12.1013 37.3753 12.3073 37.3753 13.1084V36.6159C37.3753 38.0808 36.7799 38.9506 34.6575 39.0879L9.57677 40.4384C7.97201 40.5071 7.2214 40.3011 6.39314 39.3626L1.29416 33.5258C0.388247 32.45 0 31.6488 0 30.7104V9.81231C0 8.59917 0.621195 7.61492 2.35537 7.47759Z" fill="black"/>
</g>
<defs>
<clipPath id="clip0_333_1361">
<rect width="145.551" height="48" fill="white"/>
</clipPath>
</defs>
</svg>
