<svg width="111" height="48" viewBox="0 0 111 48" fill="none" xmlns="http://www.w3.org/2000/svg">
<g style="mix-blend-mode:luminosity" clip-path="url(#clip0_333_1363)">
<path fill-rule="evenodd" clip-rule="evenodd" d="M89.9336 20.5972C90.3558 21.2429 90.4939 21.9774 90.5396 22.8032L90.5995 23.9039V31.6007L90.6607 32.7025C90.7832 34.502 92.2806 35.8325 94.3265 35.9457L95.5632 36V23.9039L95.6245 22.8032C95.6753 21.9867 95.8121 21.2382 96.2409 20.588C96.6777 19.921 97.3049 19.3677 98.0594 18.9835C98.8139 18.5993 99.6691 18.3978 100.539 18.3992C101.409 18.4006 102.264 18.6049 103.017 18.9915C103.77 19.3781 104.395 19.9335 104.829 20.6018C105.251 21.2475 105.383 21.9959 105.433 22.8032L105.495 23.9005V31.6007L105.556 32.7025C105.684 34.5112 107.169 35.8418 109.222 35.9457L110.458 36V22.8032C110.458 20.4697 109.413 18.2317 107.551 16.5813C105.69 14.9309 103.165 14.0032 100.532 14.0023C99.1229 14.001 97.7296 14.2662 96.4453 14.7803C95.161 15.2944 94.0153 16.0454 93.0846 16.9833C92.1536 16.0458 91.0078 15.2949 89.7236 14.7807C88.4394 14.2665 87.0462 14.0007 85.6371 14.0012C83.5755 14.0012 81.6624 14.5555 80.0778 15.513C79.1108 14.5567 76.9476 14.0012 75.7057 14.0012V36L76.9476 35.9457C79.0248 35.8244 80.5261 34.5297 80.6069 32.7025L80.6733 31.6007V23.9039L80.7346 22.8032C80.7867 21.9728 80.917 21.2429 81.3406 20.5926C81.7778 19.9261 82.4047 19.3728 83.1586 18.9882C83.9125 18.6035 84.7671 18.4009 85.6371 18.4005C86.5077 18.4006 87.3629 18.6037 88.117 18.9893C88.8711 19.3748 89.4976 19.9294 89.9336 20.5972ZM4.96373 35.9469L6.20564 36H24.8213L24.76 34.9028C24.5919 33.0941 23.1467 31.7728 21.0994 31.655L19.8575 31.6007H8.68946L23.5794 18.3993L23.5181 17.3032C23.4217 15.4761 21.9152 14.1559 19.8575 14.0554L18.6156 14.0058L0 14.0012L0.0612485 15.1019C0.224143 16.8932 1.6902 18.2422 3.72052 18.3462L4.96373 18.4005H16.1318L1.24191 31.6018L1.30316 32.7025C1.42566 34.5159 2.90213 35.8291 4.96373 35.9457V35.9469ZM70.8332 17.2212C71.9858 18.2426 72.9002 19.4552 73.524 20.7898C74.1478 22.1244 74.4689 23.5548 74.4689 24.9994C74.4689 26.444 74.1478 27.8744 73.524 29.209C72.9002 30.5436 71.9858 31.7562 70.8332 32.7776C68.5044 34.8399 65.3471 35.9983 62.0551 35.9983C58.7631 35.9983 55.6058 34.8399 53.277 32.7776C48.4306 28.4823 48.4306 21.5166 53.277 17.2212C54.4286 16.2002 55.7959 15.3902 57.3007 14.8375C58.8055 14.2848 60.4184 14.0002 62.0473 14C63.6788 13.999 65.2946 14.2831 66.8022 14.836C68.3098 15.3889 69.6795 16.1999 70.8332 17.2224V17.2212ZM67.3212 20.3362C68.7171 21.5744 69.5013 23.2531 69.5013 25.0035C69.5013 26.7538 68.7171 28.4326 67.3212 29.6707C65.9242 30.908 64.03 31.6029 62.0551 31.6029C60.0802 31.6029 58.1861 30.908 56.789 29.6707C55.3931 28.4326 54.6089 26.7538 54.6089 25.0035C54.6089 23.2531 55.3931 21.5744 56.789 20.3362C58.1861 19.099 60.0802 18.404 62.0551 18.404C64.03 18.404 65.9242 19.099 67.3212 20.3362ZM35.9998 14C37.6288 14.0004 39.2417 14.2851 40.7465 14.8381C42.2513 15.391 43.6185 16.2012 44.77 17.2224C49.6178 21.5166 49.6178 28.4834 44.77 32.7776C42.4413 34.8399 39.2839 35.9983 35.9919 35.9983C32.6999 35.9983 29.5426 34.8399 27.2139 32.7776C22.3674 28.4823 22.3674 21.5166 27.2139 17.2212C28.3655 16.2002 29.7327 15.3902 31.2375 14.8375C32.7423 14.2848 34.3552 14.0002 35.9841 14H35.9998ZM41.258 20.3339C42.6544 21.5721 43.4388 23.2511 43.4388 25.0017C43.4388 26.7524 42.6544 28.4314 41.258 29.6696C39.861 30.9068 37.9669 31.6018 35.9919 31.6018C34.017 31.6018 32.1229 30.9068 30.7259 29.6696C29.3299 28.4314 28.5458 26.7527 28.5458 25.0023C28.5458 23.252 29.3299 21.5732 30.7259 20.335C32.1229 19.0978 34.017 18.4028 35.9919 18.4028C37.9669 18.4028 39.861 19.0978 41.258 20.335V20.3339Z" fill="#2D8CFF"/>
</g>
<defs>
<clipPath id="clip0_333_1363">
<rect width="110.573" height="48" fill="white"/>
</clipPath>
</defs>
</svg>
