<svg width="180" height="29" viewBox="0 0 180 29" fill="none" xmlns="http://www.w3.org/2000/svg">
<g clip-path="url(#clip0_341_656)">
<path d="M14.7573 4.45854L29.1886 0.28125L24.9778 14.5001L29.1886 28.6788L14.7573 24.5416L0.285156 28.6788L4.53687 14.5001L0.285156 0.28125L14.7573 4.45854Z" fill="white"/>
</g>
<path d="M40.1094 24.9726V2.41699H49.2268C50.6261 2.41699 51.8723 2.69625 52.9655 3.25477C54.0806 3.79181 54.9442 4.56514 55.5564 5.57477C56.1905 6.56292 56.5075 7.75514 56.5075 9.15144V9.57033C56.5075 10.9666 56.1796 12.1696 55.5236 13.1792C54.8896 14.1888 54.0259 14.9622 52.9327 15.4992C51.8395 16.0363 50.6042 16.3048 49.2268 16.3048H43.6514V24.9726H40.1094ZM43.6514 13.147H48.866C50.1123 13.147 51.1071 12.8248 51.8505 12.1803C52.5938 11.5359 52.9655 10.6551 52.9655 9.5381V9.21588C52.9655 8.07736 52.5938 7.18588 51.8505 6.54144C51.1071 5.89699 50.1123 5.57477 48.866 5.57477H43.6514V13.147Z" fill="white"/>
<path d="M67.0964 25.4237C65.4784 25.4237 64.0354 25.1014 62.7673 24.457C61.521 23.7911 60.5371 22.8459 59.8156 21.6214C59.0941 20.397 58.7333 18.947 58.7333 17.2714V16.7881C58.7333 15.1125 59.0941 13.6733 59.8156 12.4703C60.5371 11.2459 61.521 10.3007 62.7673 9.63477C64.0354 8.96884 65.4784 8.63588 67.0964 8.63588C68.7143 8.63588 70.1574 8.96884 71.4255 9.63477C72.6936 10.3007 73.6885 11.2459 74.41 12.4703C75.1315 13.6733 75.4923 15.1125 75.4923 16.7881V17.2714C75.4923 18.947 75.1315 20.397 74.41 21.6214C73.6885 22.8459 72.6936 23.7911 71.4255 24.457C70.1574 25.1014 68.7143 25.4237 67.0964 25.4237ZM67.0964 22.4592C68.5832 22.4592 69.7857 21.9974 70.704 21.0737C71.6442 20.1285 72.1142 18.8288 72.1142 17.1748V16.8848C72.1142 15.2307 71.6551 13.9418 70.7368 13.0181C69.8185 12.0729 68.605 11.6003 67.0964 11.6003C65.6315 11.6003 64.429 12.0729 63.4888 13.0181C62.5705 13.9418 62.1114 15.2307 62.1114 16.8848V17.1748C62.1114 18.8288 62.5705 20.1285 63.4888 21.0737C64.429 21.9974 65.6315 22.4592 67.0964 22.4592Z" fill="white"/>
<path d="M86.3227 25.4237C84.2675 25.4237 82.5621 24.9726 81.2065 24.0703C79.8509 23.1681 79.0201 21.804 78.714 19.9781L81.8624 19.237C82.0373 20.1177 82.3325 20.8159 82.7479 21.3314C83.1633 21.847 83.6772 22.2122 84.2894 22.427C84.9234 22.6418 85.6012 22.7492 86.3227 22.7492C87.3941 22.7492 88.214 22.5451 88.7825 22.137C89.3728 21.7288 89.668 21.2026 89.668 20.5581C89.668 19.9137 89.3947 19.4411 88.848 19.1403C88.3014 18.8396 87.4925 18.5926 86.4211 18.3992L85.306 18.2059C84.2128 18.0126 83.218 17.7333 82.3216 17.3681C81.4251 17.0029 80.7146 16.4981 80.1898 15.8537C79.6651 15.2092 79.4027 14.3822 79.4027 13.3725C79.4027 11.8688 79.9712 10.7088 81.1081 9.89255C82.245 9.05477 83.7537 8.63588 85.634 8.63588C87.4487 8.63588 88.9355 9.04403 90.0943 9.86033C91.275 10.6551 92.0402 11.74 92.3901 13.1148L89.2416 13.9848C89.0448 13.0181 88.6294 12.3414 87.9953 11.9548C87.3613 11.5466 86.5742 11.3425 85.634 11.3425C84.7157 11.3425 83.9942 11.5144 83.4694 11.8581C82.9447 12.1803 82.6823 12.6422 82.6823 13.2437C82.6823 13.8881 82.9338 14.3607 83.4367 14.6614C83.9614 14.9622 84.661 15.1877 85.5356 15.3381L86.6835 15.5314C87.8423 15.7248 88.9027 15.9933 89.8647 16.337C90.8268 16.6807 91.5811 17.1748 92.1277 17.8192C92.6961 18.4637 92.9804 19.3229 92.9804 20.397C92.9804 21.9866 92.3791 23.2218 91.1766 24.1025C89.9741 24.9833 88.3561 25.4237 86.3227 25.4237Z" fill="white"/>
<path d="M96.9288 24.9726V9.08699H100.307V24.9726H96.9288ZM98.6342 6.92811C97.9782 6.92811 97.4207 6.72403 96.9616 6.31588C96.5243 5.88625 96.3056 5.33847 96.3056 4.67255C96.3056 4.00662 96.5243 3.46959 96.9616 3.06144C97.4207 2.63181 97.9782 2.41699 98.6342 2.41699C99.312 2.41699 99.8695 2.63181 100.307 3.06144C100.744 3.46959 100.963 4.00662 100.963 4.67255C100.963 5.33847 100.744 5.88625 100.307 6.31588C99.8695 6.72403 99.312 6.92811 98.6342 6.92811Z" fill="white"/>
<path d="M111.387 24.9726C110.403 24.9726 109.616 24.6825 109.026 24.1025C108.458 23.5225 108.173 22.7492 108.173 21.7826V11.8903H103.713V9.08699H108.173V3.83477H111.551V9.08699H116.372V11.8903H111.551V21.2025C111.551 21.847 111.857 22.1692 112.47 22.1692H115.848V24.9726H111.387Z" fill="white"/>
<path d="M120.341 24.9726V9.08699H123.719V24.9726H120.341ZM122.046 6.92811C121.39 6.92811 120.833 6.72403 120.374 6.31588C119.936 5.88625 119.718 5.33847 119.718 4.67255C119.718 4.00662 119.936 3.46959 120.374 3.06144C120.833 2.63181 121.39 2.41699 122.046 2.41699C122.724 2.41699 123.282 2.63181 123.719 3.06144C124.156 3.46959 124.375 4.00662 124.375 4.67255C124.375 5.33847 124.156 5.88625 123.719 6.31588C123.282 6.72403 122.724 6.92811 122.046 6.92811Z" fill="white"/>
<path d="M132.471 24.9726L127.027 9.08699H130.602L134.898 22.5237H135.423L139.719 9.08699H143.294L137.85 24.9726H132.471Z" fill="white"/>
<path d="M152.77 25.2626C151.546 25.2626 150.453 24.994 149.491 24.457C148.528 23.92 147.774 23.1574 147.228 22.1692C146.681 21.1811 146.408 19.9996 146.408 18.6248V9.08699H149.786V18.3992C149.786 19.774 150.136 20.7944 150.835 21.4603C151.535 22.1048 152.508 22.427 153.754 22.427C155.131 22.427 156.236 21.9759 157.066 21.0737C157.919 20.15 158.346 18.8288 158.346 17.1103V9.08699H161.724V24.9726H158.411V22.5881H157.886C157.58 23.2326 157.034 23.8448 156.247 24.4248C155.459 24.9833 154.301 25.2626 152.77 25.2626Z" fill="white"/>
<path d="M173.342 25.4237C171.287 25.4237 169.581 24.9726 168.226 24.0703C166.87 23.1681 166.039 21.804 165.733 19.9781L168.882 19.237C169.056 20.1177 169.352 20.8159 169.767 21.3314C170.183 21.847 170.696 22.2122 171.309 22.427C171.943 22.6418 172.62 22.7492 173.342 22.7492C174.413 22.7492 175.233 22.5451 175.802 22.137C176.392 21.7288 176.687 21.2026 176.687 20.5581C176.687 19.9137 176.414 19.4411 175.867 19.1403C175.321 18.8396 174.512 18.5926 173.44 18.3992L172.325 18.2059C171.232 18.0126 170.237 17.7333 169.341 17.3681C168.444 17.0029 167.734 16.4981 167.209 15.8537C166.684 15.2092 166.422 14.3822 166.422 13.3725C166.422 11.8688 166.99 10.7088 168.127 9.89255C169.264 9.05477 170.773 8.63588 172.653 8.63588C174.468 8.63588 175.955 9.04403 177.113 9.86033C178.294 10.6551 179.059 11.74 179.409 13.1148L176.261 13.9848C176.064 13.0181 175.649 12.3414 175.015 11.9548C174.38 11.5466 173.593 11.3425 172.653 11.3425C171.735 11.3425 171.013 11.5144 170.489 11.8581C169.964 12.1803 169.702 12.6422 169.702 13.2437C169.702 13.8881 169.953 14.3607 170.456 14.6614C170.981 14.9622 171.68 15.1877 172.555 15.3381L173.703 15.5314C174.861 15.7248 175.922 15.9933 176.884 16.337C177.846 16.6807 178.6 17.1748 179.147 17.8192C179.715 18.4637 180 19.3229 180 20.397C180 21.9866 179.398 23.2218 178.196 24.1025C176.993 24.9833 175.375 25.4237 173.342 25.4237Z" fill="white"/>
<defs>
<clipPath id="clip0_341_656">
<rect width="29.5167" height="29" fill="white"/>
</clipPath>
</defs>
</svg>
