<svg width="494" height="395" viewBox="0 0 494 395" fill="none" xmlns="http://www.w3.org/2000/svg">
<path d="M169 163.5C215.644 163.5 257.858 167.471 288.398 173.887C303.673 177.095 316 180.91 324.497 185.13C328.746 187.24 332.011 189.439 334.208 191.694C336.403 193.948 337.5 196.222 337.5 198.5C337.5 200.778 336.403 203.052 334.208 205.306C332.011 207.561 328.746 209.76 324.497 211.87C316 216.09 303.673 219.905 288.398 223.113C257.858 229.529 215.644 233.5 169 233.5C122.356 233.5 80.1417 229.529 49.6016 223.113C34.3275 219.905 21.9997 216.09 13.5029 211.87C9.25392 209.76 5.98872 207.561 3.79199 205.306C1.59696 203.052 0.5 200.778 0.5 198.5C0.5 196.222 1.59696 193.948 3.79199 191.694C5.98872 189.439 9.25392 187.24 13.5029 185.13C21.9997 180.91 34.3275 177.095 49.6016 173.887C80.1417 167.471 122.356 163.5 169 163.5Z" stroke="black"/>
<path d="M169 188.5C215.644 188.5 257.858 192.471 288.398 198.887C303.673 202.095 316 205.91 324.497 210.13C328.746 212.24 332.011 214.439 334.208 216.694C336.403 218.948 337.5 221.222 337.5 223.5C337.5 225.778 336.403 228.052 334.208 230.306C332.011 232.561 328.746 234.76 324.497 236.87C316 241.09 303.673 244.905 288.398 248.113C257.858 254.529 215.644 258.5 169 258.5C122.356 258.5 80.1417 254.529 49.6016 248.113C34.3275 244.905 21.9997 241.09 13.5029 236.87C9.25392 234.76 5.98872 232.561 3.79199 230.306C1.59696 228.052 0.5 225.778 0.5 223.5C0.5 221.222 1.59696 218.948 3.79199 216.694C5.98872 214.439 9.25392 212.24 13.5029 210.13C21.9997 205.91 34.3275 202.095 49.6016 198.887C80.1417 192.471 122.356 188.5 169 188.5Z" stroke="black"/>
<path d="M169 213.5C215.644 213.5 257.858 217.471 288.398 223.887C303.673 227.095 316 230.91 324.497 235.13C328.746 237.24 332.011 239.439 334.208 241.694C336.403 243.948 337.5 246.222 337.5 248.5C337.5 250.778 336.403 253.052 334.208 255.306C332.011 257.561 328.746 259.76 324.497 261.87C316 266.09 303.673 269.905 288.398 273.113C257.858 279.529 215.644 283.5 169 283.5C122.356 283.5 80.1417 279.529 49.6016 273.113C34.3275 269.905 21.9997 266.09 13.5029 261.87C9.25392 259.76 5.98872 257.561 3.79199 255.306C1.59696 253.052 0.5 250.778 0.5 248.5C0.5 246.222 1.59696 243.948 3.79199 241.694C5.98872 239.439 9.25392 237.24 13.5029 235.13C21.9997 230.91 34.3275 227.095 49.6016 223.887C80.1417 217.471 122.356 213.5 169 213.5Z" stroke="black"/>
<path d="M252.343 66.6289L252.511 67.5342L253.179 66.9004L300.312 22.1758L272.341 80.8232L271.944 81.6543L272.857 81.5342L337.277 73.0547L280.177 104.061L279.367 104.5L280.177 104.939L337.277 135.944L272.857 127.466L271.944 127.346L272.341 128.177L300.312 186.823L253.179 142.1L252.511 141.466L252.343 142.371L240.5 206.259L228.657 142.371L228.489 141.466L227.821 142.1L180.688 186.823L208.659 128.177L209.056 127.346L208.143 127.466L143.722 135.944L200.823 104.939L201.633 104.5L200.823 104.061L143.722 73.0547L208.143 81.5342L209.056 81.6543L208.659 80.8232L180.688 22.1758L227.821 66.9004L228.489 67.5342L228.657 66.6289L240.5 2.74023L252.343 66.6289Z" stroke="black"/>
<path d="M277 177L294.789 222.06L341.11 207.874L316.972 249.877L356.944 277.247L309.055 284.563L312.578 332.879L277 300L241.422 332.879L244.945 284.563L197.056 277.247L237.028 249.877L212.89 207.874L259.211 222.06L277 177Z" fill="#D9D9D9"/>
<path d="M112.194 306.102L135.134 264L158.258 306.102L200.269 329.134L158.258 352.166L135.134 394.269L112.194 352.166L70 329.134L112.194 306.102Z" fill="#B9FF66"/>
<circle cx="152.5" cy="186.5" r="62" fill="black" stroke="black"/>
<ellipse cx="132" cy="173" rx="10" ry="20" fill="white"/>
<ellipse cx="173" cy="173" rx="10" ry="20" fill="white"/>
</svg>
