<svg width="601" height="515" viewBox="0 0 601 515" fill="none" xmlns="http://www.w3.org/2000/svg">
<g clip-path="url(#clip0_332_1228)">
<path d="M310.999 432.535L328.6 427.349L323.464 445L328.6 462.601L310.999 457.465L293.348 462.601L298.533 445L293.348 427.349L310.999 432.535Z" fill="black" stroke="white" stroke-miterlimit="10"/>
</g>
<g clip-path="url(#clip1_332_1228)">
<path d="M124.947 345.509L156.423 362.659L124.947 379.947L107.729 411.354L90.5097 379.947L59.0337 362.659L90.5097 345.509L107.729 313.964L124.947 345.509Z" fill="black" stroke="white" stroke-miterlimit="10"/>
</g>
<path d="M345.586 201.187C414.025 238.937 472.758 278.935 512.391 313.077C532.21 330.151 547.233 345.742 556.306 358.842C560.843 365.393 563.876 371.297 565.288 376.433C566.699 381.568 566.479 385.89 564.58 389.333C562.68 392.777 559.142 395.268 554.047 396.813C548.949 398.359 542.337 398.943 534.376 398.6C518.455 397.913 497.254 393.524 472.24 385.868C422.219 370.558 357.057 342.216 288.618 304.465C220.179 266.715 161.445 226.717 121.812 192.575C101.993 175.501 86.971 159.91 77.8974 146.81C73.36 140.259 70.3264 134.355 68.9146 129.218C67.5035 124.084 67.723 119.763 69.6224 116.319C71.522 112.875 75.0605 110.384 80.1559 108.839C85.2536 107.293 91.8663 106.709 99.8276 107.052C115.748 107.739 136.949 112.128 161.963 119.784C211.983 135.094 277.146 163.436 345.586 201.187Z" stroke="black"/>
<path d="M325.355 237.861C393.794 275.611 452.528 315.609 492.16 349.751C511.979 366.825 527.002 382.416 536.076 395.516C540.613 402.066 543.646 407.971 545.058 413.107C546.469 418.241 546.249 422.563 544.349 426.007C542.45 429.451 538.912 431.942 533.816 433.487C528.719 435.033 522.107 435.617 514.145 435.274C498.225 434.587 477.023 430.198 452.009 422.542C401.989 407.232 336.827 378.89 268.387 341.139C199.948 303.389 141.214 263.391 101.582 229.249C81.7626 212.175 66.7405 196.584 57.6669 183.484C53.1295 176.933 50.096 171.029 48.6841 165.892C47.273 160.758 47.4926 156.437 49.3919 152.993C51.2915 149.549 54.8301 147.057 59.9254 145.512C65.0232 143.966 71.6359 143.383 79.5971 143.726C95.5175 144.413 116.719 148.802 141.732 156.458C191.753 171.768 256.916 200.11 325.355 237.861Z" stroke="black"/>
<path d="M305.127 274.535C373.566 312.285 432.299 352.283 471.932 386.425C491.751 403.499 506.774 419.09 515.847 432.19C520.385 438.741 523.417 444.645 524.829 449.782C526.24 454.916 526.02 459.238 524.121 462.682C522.221 466.125 518.683 468.616 513.588 470.161C508.49 471.707 501.878 472.292 493.917 471.948C477.997 471.261 456.795 466.872 431.781 459.216C381.76 443.906 316.598 415.564 248.159 377.814C179.72 340.063 120.986 300.065 81.3531 265.923C61.5341 248.849 46.512 233.258 37.4384 220.158C32.901 213.608 29.8674 207.703 28.4556 202.566C27.0445 197.433 27.2641 193.111 29.1634 189.667C31.063 186.223 34.6015 183.732 39.6969 182.187C44.7946 180.641 51.4073 180.057 59.3686 180.4C75.289 181.087 96.4902 185.476 121.504 193.132C171.524 208.442 236.687 236.784 305.127 274.535Z" stroke="black"/>
<circle cx="131.5" cy="104.5" r="15.5" fill="#B9FF66"/>
<circle cx="421" cy="435" r="10" fill="#B9FF66"/>
<circle cx="81.5" cy="64.5" r="23.5" fill="black"/>
<path d="M305.972 383.59C299.668 385.744 292.464 381.475 289.958 374.071L250.959 259.81L273.747 252.015L312.785 366.433C315.291 373.758 312.237 381.436 305.972 383.59Z" fill="black"/>
<path d="M302.565 385C300.725 385 298.845 384.569 297.044 383.668C293.403 381.866 290.505 378.498 289.096 374.345L250.097 260.084C249.941 259.653 250.175 259.144 250.645 258.987L273.434 251.192C273.669 251.113 273.904 251.113 274.099 251.231C274.295 251.348 274.452 251.505 274.53 251.74L313.568 366.159C316.191 373.914 312.902 382.101 306.207 384.412C305.071 384.804 303.818 385 302.565 385ZM252.055 260.358L290.779 373.797C292.032 377.518 294.617 380.574 297.827 382.14C300.412 383.394 303.192 383.629 305.698 382.767C311.493 380.769 314.312 373.562 311.962 366.707L273.199 253.111L252.055 260.358Z" fill="black"/>
<path d="M269.714 153.382L195.984 205.988L167.283 235.798L156.007 255.736L155.968 255.892C153.736 259.339 155.028 267.291 159.218 275.399C163.329 283.39 169.124 288.953 173.196 289.266L173.078 289.344L194.731 291.695L235.257 285.231L321.281 254.443L428.214 272.775L428.958 272.814C402.097 267.8 365.84 231.88 339.488 181.076C313.176 130.31 304.797 80.132 316.347 55.376H316.308L270.301 152.128L269.714 153.382Z" fill="#B9FF66"/>
<path d="M446.729 270.603C473.157 256.873 468.046 194.629 435.315 131.577C402.584 68.5247 354.626 28.5412 328.199 42.2711C301.771 56.001 306.882 118.245 339.613 181.297C372.344 244.349 420.302 284.333 446.729 270.603Z" fill="white"/>
<path d="M435.106 274.185C423.594 274.185 409.733 267.761 394.815 255.266C374.494 238.266 354.564 212.06 338.706 181.428C314.704 135.05 304.797 87.4964 313.49 60.2726C316.387 51.1849 321.243 44.8392 327.86 41.4313C341.016 34.6939 359.536 40.4129 380.054 57.5698C400.375 74.57 420.305 100.775 436.163 131.407C460.204 177.786 470.111 225.339 461.379 252.563C458.482 261.651 453.626 267.996 447.009 271.404C443.446 273.284 439.452 274.185 435.106 274.185ZM339.841 40.4129C335.808 40.4129 332.049 41.2355 328.682 42.9982C322.456 46.171 317.914 52.2033 315.173 60.8601C306.598 87.6922 316.466 134.737 340.272 180.723C372.693 243.279 420.227 283.312 446.265 269.955C452.491 266.782 457.033 260.75 459.774 252.093C468.349 225.261 458.482 178.216 434.675 132.23C406.444 77.782 366.819 40.4129 339.841 40.4129Z" fill="black"/>
<path d="M435.106 274.185C423.594 274.185 409.733 267.761 394.815 255.266C374.494 238.265 354.564 212.06 338.706 181.428C314.704 135.05 304.797 87.4963 313.49 60.2725C316.387 51.1848 321.243 44.8391 327.86 41.4312C336.67 36.8874 348.181 38.0234 361.142 44.6824C373.554 51.0673 386.984 62.3877 400.062 77.3902C400.375 77.7427 400.336 78.2911 399.984 78.6045C399.631 78.9179 399.083 78.8787 398.77 78.5262C372.223 48.0511 345.362 34.4196 328.682 42.9981C322.456 46.1709 317.914 52.2033 315.173 60.86C306.598 87.6922 316.466 134.737 340.272 180.723C368.464 235.132 408.128 272.54 435.067 272.54C439.1 272.54 442.859 271.717 446.226 269.955C452.452 266.782 456.994 260.75 459.735 252.093C468.31 225.261 458.442 178.216 434.636 132.23C427.549 118.52 419.561 105.632 410.986 93.9204C410.712 93.5286 410.791 92.9803 411.182 92.7061C411.574 92.4319 412.122 92.5102 412.396 92.9019C421.049 104.692 429.037 117.658 436.202 131.446C460.204 177.785 470.111 225.339 461.379 252.563C458.482 261.65 453.626 267.996 447.009 271.404C443.446 273.284 439.452 274.185 435.106 274.185Z" fill="black"/>
<path d="M386.766 190.339C392.889 187.158 391.711 172.751 384.136 158.159C376.561 143.567 365.458 134.316 359.335 137.497C353.213 140.678 354.391 155.085 361.965 169.677C369.54 184.269 380.644 193.52 386.766 190.339Z" fill="#B9FF66"/>
<path d="M384.087 191.848C377.352 191.848 367.955 183.152 361.181 170.03C355.543 159.14 353.233 147.937 355.308 141.474C356.052 139.202 357.266 137.596 358.949 136.734C365.606 133.326 377 142.61 384.909 157.847C390.548 168.737 392.858 179.94 390.782 186.403C390.039 188.675 388.825 190.281 387.141 191.143C386.201 191.613 385.183 191.848 384.087 191.848ZM362.003 137.714C361.181 137.714 360.398 137.87 359.732 138.223C358.44 138.889 357.501 140.142 356.913 141.983C354.995 148.016 357.226 158.748 362.669 169.246C369.874 183.152 380.72 192.514 386.319 189.615C387.611 188.949 388.551 187.696 389.138 185.855C391.057 179.783 388.786 169.09 383.382 158.592C377.039 146.41 367.955 137.714 362.003 137.714Z" fill="#B9FF66"/>
<path d="M429.155 259.574C419.053 259.574 406.914 253.934 393.837 243.005C376.06 228.12 358.597 205.166 344.736 178.373C323.71 137.792 315.056 96.153 322.652 72.2978C325.197 64.307 329.465 58.7447 335.3 55.7285C348.691 48.8736 368.386 56.7861 389.373 77.4292C389.725 77.7818 389.725 78.291 389.373 78.6435C389.021 78.9961 388.512 78.9961 388.159 78.6435C367.72 58.5488 348.73 50.7146 336.083 57.2562C330.679 60.0373 326.725 65.2471 324.297 72.8071C316.818 96.2313 325.432 137.361 346.263 177.589C370.892 225.182 405.544 257.851 429.115 257.851C432.639 257.851 435.889 257.107 438.865 255.618C444.269 252.837 448.223 247.627 450.651 240.067C458.13 216.643 449.515 175.513 428.685 135.285C422.381 123.142 415.333 111.743 407.737 101.441C407.463 101.049 407.541 100.501 407.933 100.227C408.324 99.9526 408.872 100.031 409.146 100.423C416.821 110.842 423.908 122.28 430.251 134.501C451.277 175.082 459.931 216.721 452.335 240.576C449.789 248.567 445.522 254.13 439.687 257.146C436.477 258.752 432.953 259.574 429.155 259.574Z" fill="black"/>
<path d="M194.771 292.517C194.732 292.517 194.693 292.517 194.693 292.517L173.04 290.167C172.923 290.167 172.805 290.128 172.688 290.05C168.224 289.344 162.586 283.704 158.474 275.791C154.089 267.448 152.797 259.3 155.185 255.462L155.224 255.344L166.501 235.367C166.54 235.289 166.579 235.249 166.619 235.21L195.319 205.401C195.359 205.362 195.398 205.323 195.437 205.284L268.97 152.794L315.487 54.9845C315.604 54.7886 315.761 54.632 315.996 54.5536C316.231 54.4753 316.466 54.4753 316.662 54.5928C317.092 54.7886 317.288 55.2979 317.092 55.7288C305.306 80.994 314.625 131.211 340.233 180.645C365.88 230.157 401.628 266.821 429.155 271.874C429.585 271.953 429.898 272.344 429.859 272.814C429.82 273.245 429.429 273.559 428.998 273.598L428.254 273.559C428.215 273.559 428.176 273.559 428.136 273.559L321.399 255.266L235.571 285.976C235.532 285.976 235.454 286.015 235.414 286.015L194.889 292.478C194.85 292.517 194.81 292.517 194.771 292.517ZM173.667 288.522L194.771 290.794L235.101 284.331L321.086 253.581C321.243 253.542 321.36 253.503 321.517 253.542L417.604 269.994C391.644 258.595 361.298 224.947 338.784 181.468C316.427 138.301 306.442 94.4689 311.924 66.775L270.497 153.735C270.419 153.852 270.341 153.97 270.223 154.048L196.572 206.655L167.989 236.307L156.712 256.284C156.712 256.323 156.673 256.363 156.673 256.363C154.637 259.535 156.008 267.37 159.962 275.008C163.839 282.49 169.438 288.13 173.275 288.404C173.432 288.404 173.549 288.444 173.667 288.522Z" fill="black"/>
<path d="M269.83 153.069L316.308 55.3369H316.347C304.796 80.093 313.214 130.271 339.487 181.037C365.839 231.881 402.097 267.8 429.035 272.736L428.292 272.697L321.515 254.404L319.048 253.973C306.636 251.779 290.074 235.641 278.209 212.608C266.032 188.988 263.879 165.447 269.282 154.244L269.83 153.069Z" fill="white"/>
<path d="M429.036 273.598C428.997 273.598 429.036 273.598 429.036 273.598L428.253 273.558C428.214 273.558 428.174 273.558 428.135 273.558L321.359 255.266L318.892 254.835C305.775 252.524 289.134 235.719 277.427 213.039C264.153 187.265 263.487 164.311 268.499 153.891L269.087 152.716L315.564 55.0236C315.681 54.8277 315.838 54.671 316.073 54.5927C316.308 54.5143 316.543 54.5143 316.739 54.6319C317.169 54.8277 317.365 55.3369 317.169 55.7678C305.384 81.0331 314.702 131.25 340.31 180.684C365.957 230.196 401.705 266.86 429.232 271.913C429.662 271.992 429.976 272.383 429.936 272.853C429.819 273.245 429.467 273.598 429.036 273.598ZM311.844 66.7749L270.614 153.46L270.026 154.635C265.054 164.977 266.502 188.087 278.954 212.217C290.426 234.466 306.597 250.918 319.205 253.111L321.672 253.542L417.563 269.994C391.603 258.595 361.258 224.947 338.744 181.467C316.386 138.301 306.402 94.4687 311.844 66.7749Z" fill="black"/>
<path d="M193.596 292.4C193.557 292.4 193.518 292.4 193.518 292.4L173 290.206C172.883 290.206 172.766 290.167 172.648 290.089C168.184 289.384 162.546 283.743 158.435 275.831C154.088 267.448 152.796 259.3 155.185 255.462L155.224 255.344L166.501 235.367C166.736 234.936 167.245 234.819 167.675 235.054C168.106 235.289 168.224 235.798 167.989 236.229L156.712 256.284C156.712 256.323 156.673 256.363 156.673 256.363C154.637 259.535 156.007 267.37 159.962 275.008C163.838 282.49 169.437 288.13 173.275 288.404C173.392 288.404 173.549 288.444 173.627 288.522L193.674 290.676C194.144 290.716 194.497 291.146 194.418 291.616C194.379 292.047 194.027 292.4 193.596 292.4Z" fill="black"/>
<path d="M194.966 291.538C188.31 291.068 178.991 281.628 172.217 268.584C165.052 254.756 163.368 240.459 167.753 235.367L156.046 255.736L155.968 255.892C153.736 259.339 155.028 267.291 159.218 275.399C163.329 283.39 169.124 288.953 173.196 289.266L173.078 289.344L194.966 291.538Z" fill="white"/>
<path d="M194.967 292.4C194.927 292.4 194.927 292.4 194.888 292.4C194.732 292.4 194.536 292.36 194.379 292.36L173 290.206C172.883 290.206 172.766 290.167 172.648 290.088C168.184 289.383 162.546 283.743 158.435 275.83C154.088 267.448 152.796 259.3 155.185 255.461L155.224 255.344L165.522 237.404C165.913 236.385 166.422 235.484 167.049 234.74C167.323 234.387 167.832 234.348 168.184 234.583C168.537 234.857 168.654 235.327 168.419 235.719L166.971 238.187C164.66 244.415 166.931 256.636 172.883 268.074C179.344 280.57 188.154 289.697 194.458 290.519L194.927 290.559C195.397 290.598 195.75 291.029 195.71 291.499C195.75 292.047 195.397 292.4 194.967 292.4ZM173.627 288.522L188.584 290.049C182.828 286.367 176.485 278.768 171.434 268.975C166.54 259.535 164.112 249.742 164.504 242.692L156.712 256.284C156.712 256.323 156.673 256.362 156.673 256.362C154.637 259.535 156.007 267.369 159.962 275.008C163.838 282.489 169.437 288.13 173.275 288.404C173.392 288.404 173.549 288.443 173.627 288.522Z" fill="black"/>
<path d="M233.808 285.388L235.531 285.035C226.212 286.994 211.489 272.892 201.113 252.876C190.502 232.429 188.505 212.021 196.023 205.988L195.044 206.968L167.831 235.249C163.368 240.263 165.012 254.639 172.217 268.544C179.147 281.941 188.975 291.499 195.671 291.459L233.808 285.388Z" fill="black"/>
<path d="M195.632 292.36C188.506 292.36 178.6 282.764 171.434 268.975C164.151 254.874 162.311 240.146 167.166 234.701L193.87 206.968C194.34 206.341 194.888 205.793 195.476 205.323C195.828 205.048 196.337 205.088 196.65 205.401C196.964 205.753 196.964 206.263 196.65 206.576L195.123 208.182C189.681 215.468 192.382 234.113 201.897 252.484C212.156 272.305 226.487 285.897 235.257 284.252L235.375 284.213C235.845 284.135 236.275 284.409 236.393 284.879C236.471 285.349 236.197 285.78 235.727 285.897C235.688 285.897 235.649 285.897 235.61 285.936L234.004 286.25H233.965L195.828 292.321C195.75 292.321 195.671 292.36 195.632 292.36ZM191.599 211.825L168.459 235.876C164.151 240.733 166.109 254.913 173.001 268.192C179.735 281.197 189.25 290.598 195.632 290.637L229.306 285.27C220.222 282.058 209.023 269.955 200.37 253.307C192.147 237.443 188.976 221.304 191.599 211.825Z" fill="black"/>
<path d="M359.341 137.479C353.194 140.612 354.094 155.145 361.925 169.638C375.042 193.885 385.497 191.025 386.711 190.594C386.75 190.594 386.75 190.634 386.711 190.634L364.196 208.77C357.579 199.486 351.275 189.145 345.48 177.981C339.959 167.288 335.3 156.633 331.619 146.292L359.341 137.479Z" fill="black"/>
<path d="M364.196 209.631C364.157 209.631 364.118 209.631 364.079 209.631C363.844 209.592 363.648 209.475 363.491 209.279C356.717 199.76 350.413 189.341 344.736 178.412C339.293 167.914 334.595 157.221 330.836 146.645C330.758 146.41 330.758 146.174 330.875 145.979C330.992 145.783 331.149 145.626 331.384 145.548L359.106 136.734C359.537 136.617 360.006 136.813 360.163 137.243C360.32 137.674 360.163 138.144 359.772 138.34C358.44 139.006 357.461 140.338 356.874 142.297C354.955 148.446 357.305 159.336 362.747 169.325C375.551 192.984 385.418 190.281 386.475 189.889C386.867 189.733 387.337 189.928 387.533 190.281C387.728 190.634 387.65 191.143 387.337 191.417L364.744 209.436C364.588 209.553 364.392 209.631 364.196 209.631ZM332.754 146.84C336.474 157.064 341.016 167.405 346.263 177.59C351.745 188.166 357.853 198.233 364.392 207.516L383.93 191.77C379.467 191.574 371.048 188.244 361.181 170.03C355.464 159.493 353.115 148.368 355.19 141.67C355.464 140.808 355.778 140.064 356.169 139.359L332.754 146.84Z" fill="black"/>
<path d="M475.186 81.5974C493.086 72.1937 500.01 50.1159 490.65 32.2852C481.29 14.4545 459.192 7.62311 441.292 17.0268C423.392 26.4305 416.468 48.5083 425.828 66.339C435.188 84.1697 457.286 91.0011 475.186 81.5974Z" fill="black"/>
<path d="M441.567 41.2352C443.29 38.8849 445.835 37.4356 448.733 37.1223C450.925 36.8872 452.961 37.3573 454.88 38.5324C455.859 39.12 456.72 39.8642 457.543 40.7652C458.13 39.7075 458.835 38.7674 459.657 37.984C461.262 36.4172 463.181 35.5162 465.334 35.2812C468.232 34.9678 471.051 35.8296 473.244 37.749C475.397 39.6292 476.768 42.3712 477.12 45.4657C477.473 48.6385 476.611 51.6939 474.418 55.0626C472.461 58.0787 469.485 61.2124 466.039 64.8945C464.865 66.1479 463.533 67.5581 462.163 69.0466C461.81 69.4383 461.301 69.7125 460.753 69.7517C460.205 69.83 459.696 69.6733 459.226 69.36C457.543 68.1848 455.937 67.0881 454.528 66.1479C450.377 63.3276 446.775 60.899 444.191 58.3921C441.293 55.611 439.805 52.7906 439.453 49.6178C439.14 46.5233 439.884 43.5463 441.567 41.2352Z" fill="white"/>
<path d="M576.735 83.5925C589.839 70.4829 589.839 49.2281 576.735 36.1185C563.631 23.0089 542.385 23.0089 529.28 36.1185C516.176 49.228 516.176 70.4829 529.28 83.5925C542.385 96.7021 563.631 96.7021 576.735 83.5925Z" fill="#B9FF66"/>
<path d="M553.001 94.2732C534.05 94.2732 518.584 78.8399 518.584 59.8419C518.584 40.8832 534.011 25.4106 553.001 25.4106C571.992 25.4106 587.419 40.844 587.419 59.8419C587.419 78.8007 571.992 94.2732 553.001 94.2732ZM553.001 27.1342C534.99 27.1342 520.307 41.7841 520.307 59.8419C520.307 77.8606 534.951 92.5497 553.001 92.5497C571.013 92.5497 585.696 77.8998 585.696 59.8419C585.696 41.8233 571.052 27.1342 553.001 27.1342Z" fill="#B9FF66"/>
<path d="M562.085 63.1713C560.206 63.1713 558.561 64.0723 557.465 65.4824L546.149 61.0561C546.149 60.8994 546.188 60.7819 546.188 60.6252C546.188 60.351 546.149 60.0768 546.11 59.8026L557.7 54.4362C558.757 55.6505 560.323 56.4339 562.085 56.4731C565.296 56.4731 567.958 53.8486 567.958 50.5974C567.958 47.3462 565.335 44.6826 562.085 44.6826C558.874 44.6826 556.212 47.3071 556.212 50.5583C556.212 50.8325 556.251 51.1067 556.29 51.3809L544.7 56.7473C543.643 55.533 542.077 54.7496 540.315 54.7104C537.104 54.7104 534.441 57.3348 534.441 60.586C534.441 63.8372 537.065 66.5009 540.315 66.5009C542.194 66.5009 543.839 65.5999 544.935 64.1898L556.251 68.6161C556.251 68.7728 556.212 68.8903 556.212 69.047C556.212 72.2982 558.835 74.9618 562.085 74.9618C565.296 74.9618 567.958 72.3373 567.958 69.0861C567.919 65.8349 565.296 63.2105 562.085 63.1713Z" fill="black"/>
<path d="M562.53 189.993C577.896 179.322 581.757 158.283 571.153 142.999C560.548 127.715 539.495 123.975 524.128 134.645C508.762 145.315 504.901 166.355 515.505 181.639C526.11 196.923 547.163 200.663 562.53 189.993Z" fill="black"/>
<path d="M534.874 178.373L529.941 151.619C529.706 150.248 530.959 149.112 532.29 149.465L561.461 157.73C562.949 158.161 563.301 160.08 562.087 161.02L537.811 179.509C536.754 180.371 535.148 179.783 534.874 178.373Z" fill="white"/>
<path d="M542.998 299.582C561.975 290.34 569.915 267.553 560.734 248.686C551.553 229.819 528.726 222.016 509.75 231.258C490.774 240.499 482.833 263.286 492.015 282.153C501.196 301.02 524.022 308.823 542.998 299.582Z" fill="#B9FF66"/>
<path d="M526.181 304.347C522.108 304.347 517.958 303.72 513.925 302.349C504.058 299.059 496.07 292.165 491.45 282.842C486.83 273.559 486.125 263.022 489.453 253.151C496.344 232.821 518.506 221.735 538.906 228.512C548.773 231.802 556.761 238.696 561.381 248.019C566.002 257.303 566.706 267.84 563.378 277.711C557.818 294.006 542.508 304.347 526.181 304.347ZM526.572 228.277C510.949 228.277 496.305 238.148 491.019 253.738C487.848 263.178 488.513 273.245 492.938 282.098C497.362 290.99 504.998 297.61 514.434 300.743C533.933 307.206 555.116 296.63 561.694 277.202C564.866 267.761 564.2 257.694 559.776 248.842C555.351 239.95 547.716 233.33 538.28 230.196C534.403 228.865 530.449 228.277 526.572 228.277Z" fill="black"/>
<path d="M545.838 259.261C545.446 268.78 529.354 291.029 525.516 296.239C525.125 296.787 524.303 296.748 523.95 296.16C521.523 292.243 513.496 279.082 509.306 268.427C507.622 264.197 506.565 260.358 506.683 257.655C507.113 246.844 516.237 238.422 527.043 238.853C537.85 239.362 546.269 248.45 545.838 259.261Z" fill="black"/>
<path d="M532.593 264.827C536.095 261.324 536.095 255.644 532.593 252.141C529.091 248.638 523.414 248.638 519.913 252.141C516.411 255.644 516.411 261.324 519.913 264.827C523.414 268.33 529.091 268.33 532.593 264.827Z" fill="#B9FF66"/>
<defs>
<clipPath id="clip0_332_1228">
<rect width="36" height="36" fill="white" transform="translate(293 427)"/>
</clipPath>
<clipPath id="clip1_332_1228">
<rect width="70.3259" height="70.3259" fill="white" transform="translate(107.729 313) rotate(45)"/>
</clipPath>
</defs>
</svg>
